<?xml version="1.0" encoding="UTF-8"?>
<svg xmlns="http://www.w3.org/2000/svg" width="33" height="33" version="1.1" viewBox="0 0 33 33">
  <defs>
    <style>
      .cls-1 {
        fill: #fff;
        fill-rule: evenodd;
      }

      .cls-2 {
        fill: #ec0016;
      }
    </style>
  </defs>
  <!-- Generator: Adobe Illustrator 28.7.1, SVG Export Plug-In . SVG Version: 1.2.0 Build 142)  -->
  <g>
    <g id="Ebene_1">
      <g>
        <path class="cls-2" d="M29.1,6.7H3.9c-1.7,0-3.1,1.4-3.1,3.1v15.6c0,1.7,1.4,3.1,3.1,3.1h25.1c1.7,0,3.1-1.4,3.1-3.2v-15.6c0-1.7-1.4-3.1-3.1-3.1Z"/>
        <path class="cls-1" d="M14,10.4c-1.1,0-2,.9-2,2v1.2c0,.5.4.8.8.8s.8-.4.8-.8v-1.2c0-.2.1-.3.3-.3h4.2c1,0,1.8.8,1.8,1.8s-.8,1.8-1.8,1.8h-.8c-.5,0-.8.4-.8.8s.4.8.8.8h1.2c1.4,0,2.6,1.2,2.6,2.6s-1.2,2.6-2.6,2.6h-4.6c-.2,0-.3-.1-.3-.3v-3.2l.8,1.1c.2.2.4.3.7.3s.4,0,.5-.2c.4-.3.4-.8.2-1.2l-2.3-3.1c-.2-.2-.4-.3-.7-.3s-.5.1-.7.3l-2.3,3.1c-.3.4-.2.9.2,1.2h0c.4.3.9.2,1.2-.2l.8-1.1v3.2c0,1.1.9,2,2,2h4.6c2.4,0,4.3-1.9,4.3-4.3s-.9-3-2.1-3.7c.6-.6,1-1.5,1-2.4,0-1.9-1.6-3.5-3.5-3.5h-4.2Z"/>
      </g>
    </g>
    <metadata>
      <sfw xmlns="http://ns.adobe.com/SaveForWeb/1.0/">
        <slices/>
        <sliceSourceBounds x="0.8" y="4.5" width="31.39" height="21.84" bottomLeftOrigin="true"/>
      </sfw>
    </metadata>
  </g>
</svg>