<?xml version="1.0" encoding="UTF-8"?>
<svg width="2000px" height="1000px" viewBox="0 0 2000 1000" version="1.1" xmlns="http://www.w3.org/2000/svg" xmlns:xlink="http://www.w3.org/1999/xlink">
    <title>icon_travel_seat-comfort</title>
    <g id="icon_travel_seat-comfort" stroke="none" stroke-width="1" fill="none" fill-rule="evenodd">
        <rect id="Rectangle" x="0" y="0" width="2000" height="1000"></rect>
        <g id="Travel/Seat-Comfort" transform="translate(600, 100)">
            <g id="🎨-Icon-Style" transform="translate(124.9998, 74.9447)">
                <path d="M288.549853,425.249926 C289.825818,425.328229 339.715093,425.270228 438.217679,425.075924 C464.940456,426.612264 488.899674,443.591651 499.444774,471.379067 C515.123993,522.72561 531.791534,576.892277 549.447399,633.879067 C551.477736,640.477314 547.774713,647.472163 541.176465,649.5025 C535.049522,651.387812 528.565417,648.909786 525.553033,641.231566 C523.426031,634.2295 506.81437,580.23155 475.718053,479.237717 C470.07766,463.35181 455.394922,451.007297 437.500216,450.055317 C433.281137,449.975312 383.281137,449.975312 287.500216,450.055317 C280.596657,450.055317 275.000216,444.458876 275.000216,437.555317 C275.000216,431.144869 280.452307,425.777697 288.549853,425.249926 Z M246.781801,231.500653 C257.310355,270.52149 268.523659,311.725123 280.421713,355.111552 C280.959774,358.722496 283.691,361.85152 287.500216,362.555317 L412.490466,362.555317 C419.394025,362.555317 424.991845,368.151757 424.991845,375.055317 C425.068118,382.405857 418.63101,387.673517 412.490466,387.557267 C410.232842,387.493388 368.25082,387.480539 286.544402,387.51872 C271.534877,386.367644 259.188765,375.45567 256.075894,360.899643 L222.768072,238.443232 C217.131388,219.991392 198.224622,208.111848 177.736912,212.252058 C171.000838,213.763493 164.31491,209.528086 162.803475,202.792012 C161.292039,196.055938 165.527446,189.370011 172.26352,187.858575 C203.646104,180.816975 235.616033,198.087527 246.781801,231.500653 Z M193.750216,12.5553166 C231.719793,12.5553166 262.500216,43.33574 262.500216,81.3053166 C262.500216,119.274893 231.719793,150.055317 193.750216,150.055317 C155.780639,150.055317 125.000216,119.274893 125.000216,81.3053166 C125.000216,43.33574 155.780639,12.5553166 193.750216,12.5553166 Z M193.750216,37.5553166 C169.587758,37.5553166 150.000216,57.1428588 150.000216,81.3053166 C150.000216,105.467774 169.587758,125.055317 193.750216,125.055317 C217.912674,125.055317 237.500216,105.467774 237.500216,81.3053166 C237.500216,57.1428588 217.912674,37.5553166 193.750216,37.5553166 Z" id="Base" fill="#282D37" fill-rule="nonzero"></path>
                <path d="M65.6604666,20.5908801 C79.1211719,33.7247057 87.7338766,52.38997 87.500216,73.5375666 C87.5001831,103.273924 87.5001667,137.101466 87.5001667,175.020192 C87.5558117,194.822708 89.9851899,219.116091 96.13893,240.880023 C100.241423,255.38931 124.224682,342.215721 168.088706,501.359255 C172.786764,514.351941 185.6096,525.055317 200.000216,525.055317 C209.59396,525.055317 263.760627,525.055317 362.500216,525.055317 C369.403775,525.055317 375.000216,530.651757 375.000216,537.555317 C375.000216,543.965765 369.952854,549.52489 362.500216,550.055317 C360.355445,549.875592 306.024738,549.872362 199.508094,550.045625 C175.646948,549.10549 154.623906,534.337224 145.307737,511.598364 L72.0062028,247.406309 C65.7797675,223.524103 62.6111052,199.407105 62.500216,175.055317 L62.5023212,73.3081641 C62.7424729,60.2246541 57.5674166,47.6230545 48.2013963,38.4844786 C38.835376,29.3459027 26.1103868,24.4821416 13.0367321,25.0437973 C6.13953462,25.3401069 0.308044937,19.9890301 0.011735309,13.0918326 C-0.284574319,6.19463516 5.06650253,0.363145479 11.9637,0.0668358507 C31.9272914,-0.790817477 51.3584672,6.63619048 65.6604666,20.5908801 Z" id="Pulse" fill="#EC0016"></path>
            </g>
        </g>
    </g>
</svg>